# xmcd
#
# Track frame offsets: 
#        150
#        12514
#        26277
#        34291
#        45811
#        58357
#        70366
#        83846
#        93178
#        105275
#        116056
#        128593
#        139358
#        152866
#        164172
#        177849
#        189450
#        201310
#        213060
#        224654
#        234592
#        246255
#        258731
#        272348
#        281456
#
# Disc length: 3886 seconds
#
# Revision: 0
# Processed by: cddbd v1.5.2PL0 Copyright (c) Steve Scherf et al.
# Submitted via: ExactAudioCopy v1.3
#
DISCID=6e0f2c19
DTITLE=75 Orginal Recordings Featuring - The Very Best Of Country
DYEAR=2013
DGENRE=Country
TTITLE0=1. Crazy - Patsy Cline
TTITLE1=2. Funny How Time Slips Away - Willie Nelson
TTITLE2=3. Five Feet High And Rising - Johnny Cash
TTITLE3=4. Sea Of Heartbreak - Don Gibson
TTITLE4=5. Rowdy - Clint Eastwood
TTITLE5=6. Success - Loretta Lynn
TTITLE6=7. Heartaches By The Number - Ray Price
TTITLE7=8. Truck Driving Man - Glen Campbell
TTITLE8=9. I Should Start Running - Dottie West
TTITLE9=10. Walk On By - Leroy Von Dyke
TTITLE10=11. If You Don't Know I Ain't Gonna Tell You - George Hamilto
TTITLE10=n IV
TTITLE11=12. Hello Walls - Faron Young
TTITLE12=13. Tennessee Flat-Top Box - Johnny Cash
TTITLE13=14. A White Sport Coat (And A Pink Carnation) - Marty Robbins
TTITLE14=15. Big Bad John - Jimmy Dean
TTITLE15=16. She Thinks I Still Care - George Jones
TTITLE16=17. Sixteen Tons - Tennessee Ernie Ford
TTITLE17=18. When It's Springtime In Alaska - Johnny Horton
TTITLE18=19. My Last Date (With You) - Skeeter Davis
TTITLE19=20. The Comancheros - Claude King
TTITLE20=21. Turn Around, Look At Me - Glen Campbell
TTITLE21=22. I've Been Everywhere - Hank Snow
TTITLE22=23. I Think I Know - Marion Worth
TTITLE23=24. Delia's Gone - Johnny Cash
TTITLE24=25. The Love You Gave - Dolly Parton
EXTD=
EXTT0=
EXTT1=
EXTT2=
EXTT3=
EXTT4=
EXTT5=
EXTT6=
EXTT7=
EXTT8=
EXTT9=
EXTT10=
EXTT11=
EXTT12=
EXTT13=
EXTT14=
EXTT15=
EXTT16=
EXTT17=
EXTT18=
EXTT19=
EXTT20=
EXTT21=
EXTT22=
EXTT23=
EXTT24=
PLAYORDER=
